<?xml version="1.0" encoding="utf-8"?>
<!-- Generator: Adobe Illustrator 27.9.0, SVG Export Plug-In . SVG Version: 6.00 Build 0)  -->
<svg version="1.1" id="Layer_1" xmlns="http://www.w3.org/2000/svg" xmlns:xlink="http://www.w3.org/1999/xlink" x="0px" y="0px"
	 viewBox="0 0 124 130.4" style="enable-background:new 0 0 124 130.4;" xml:space="preserve">
<style type="text/css">
	.st0{fill:#853B2C;}
	.st1{fill:#FFF2BB;}
</style>
<ellipse class="st0" cx="62" cy="65.2" rx="58" ry="61.2"/>
<g>
	<path class="st1" d="M62,0C27.8,0,0,29.2,0,65.2s27.8,65.2,62,65.2v0c34.2,0,62-29.2,62-65.2S96.2,0,62,0z M62,122.4
		c-29.8,0-54-25.6-54-57.2C8,33.7,32.2,8,62,8s54,25.7,54,57.2C116,96.7,91.8,122.4,62,122.4z"/>
	<path class="st1" d="M68.9,77.1c-0.3,3.6-0.7,6.7-1.3,9.3c-0.6,2.6-1.3,4.6-2.2,6c-0.9,1.4-2,2.2-3.3,2.2c-2.6,0-4.5-2.6-5.6-7.8
		c-1.2-5.2-1.7-12.4-1.7-21.6c0-9.2,0.6-16.4,1.7-21.6c1.1-5.2,3-7.8,5.6-7.8c2.1,0,3.7,1.6,4.7,4.8c1,3.2,1.6,7.2,1.6,12h10.5
		c0-3.1-0.4-6.2-1.2-9.2c-0.8-3-1.9-5.7-3.3-8.1c-1.4-2.4-3.2-4.3-5.2-5.7s-4.4-2.1-7.1-2.1c-3.2,0-6,0.9-8.2,2.8
		c-2.3,1.9-4.1,4.4-5.5,7.8c-1.4,3.3-2.4,7.3-3.1,11.9c-0.7,4.6-1,9.7-1,15.3c0,5.6,0.3,10.7,0.8,15.3c0.6,4.6,1.5,8.6,2.9,11.9
		c1.4,3.3,3.2,5.9,5.5,7.8c2.3,1.9,5.2,2.8,8.6,2.8c2.9,0,5.5-1,7.8-3c2.2-2,4.1-4.8,5.6-8.2s2.6-7.5,3.4-12
		c0.7-4.6,1.1-9.4,1.1-14.4H69.3C69.3,69.5,69.2,73.5,68.9,77.1z"/>
	<polygon class="st1" points="79.8,65.2 79.8,65.2 79.8,65.2 	"/>
</g>
</svg>
